<mxfile host="app.diagrams.net" agent="Mozilla/5.0 (Windows NT 10.0; Win64; x64) AppleWebKit/537.36 (KHTML, like Gecko) Chrome/137.0.0.0 Safari/537.36 OPR/121.0.0.0" version="28.2.3">
  <diagram name="Página-1" id="so5KXVeu4PdNbJ2skW4u">
    <mxGraphModel grid="1" page="1" gridSize="10" guides="1" tooltips="1" connect="1" arrows="1" fold="1" pageScale="1" pageWidth="827" pageHeight="1169" math="0" shadow="0">
      <root>
        <mxCell id="0" />
        <mxCell id="1" parent="0" />
        <mxCell id="Grgckb2YluvVbN4gVH9M-1" value="" style="edgeStyle=orthogonalEdgeStyle;rounded=0;orthogonalLoop=1;jettySize=auto;html=1;" edge="1" parent="1" source="Grgckb2YluvVbN4gVH9M-4" target="Grgckb2YluvVbN4gVH9M-19">
          <mxGeometry relative="1" as="geometry" />
        </mxCell>
        <mxCell id="Grgckb2YluvVbN4gVH9M-2" value="" style="edgeStyle=orthogonalEdgeStyle;rounded=0;orthogonalLoop=1;jettySize=auto;html=1;" edge="1" parent="1" source="Grgckb2YluvVbN4gVH9M-4" target="Grgckb2YluvVbN4gVH9M-23">
          <mxGeometry relative="1" as="geometry" />
        </mxCell>
        <mxCell id="Grgckb2YluvVbN4gVH9M-3" style="edgeStyle=orthogonalEdgeStyle;rounded=0;orthogonalLoop=1;jettySize=auto;html=1;exitX=0.75;exitY=0;exitDx=0;exitDy=0;" edge="1" parent="1" source="Grgckb2YluvVbN4gVH9M-4" target="Grgckb2YluvVbN4gVH9M-22">
          <mxGeometry relative="1" as="geometry" />
        </mxCell>
        <mxCell id="Grgckb2YluvVbN4gVH9M-4" value="Produto" style="whiteSpace=wrap;html=1;" vertex="1" parent="1">
          <mxGeometry x="2290" y="1700" width="120" height="60" as="geometry" />
        </mxCell>
        <mxCell id="Grgckb2YluvVbN4gVH9M-5" style="edgeStyle=orthogonalEdgeStyle;rounded=0;orthogonalLoop=1;jettySize=auto;html=1;entryX=0.5;entryY=0;entryDx=0;entryDy=0;" edge="1" parent="1" source="Grgckb2YluvVbN4gVH9M-8" target="Grgckb2YluvVbN4gVH9M-17">
          <mxGeometry relative="1" as="geometry" />
        </mxCell>
        <mxCell id="Grgckb2YluvVbN4gVH9M-6" value="" style="edgeStyle=orthogonalEdgeStyle;rounded=0;orthogonalLoop=1;jettySize=auto;html=1;" edge="1" parent="1" source="Grgckb2YluvVbN4gVH9M-8" target="Grgckb2YluvVbN4gVH9M-25">
          <mxGeometry relative="1" as="geometry" />
        </mxCell>
        <mxCell id="Grgckb2YluvVbN4gVH9M-7" value="" style="edgeStyle=orthogonalEdgeStyle;rounded=0;orthogonalLoop=1;jettySize=auto;html=1;" edge="1" parent="1" source="Grgckb2YluvVbN4gVH9M-8" target="Grgckb2YluvVbN4gVH9M-24">
          <mxGeometry relative="1" as="geometry" />
        </mxCell>
        <mxCell id="Grgckb2YluvVbN4gVH9M-8" value="Compra" style="whiteSpace=wrap;html=1;" vertex="1" parent="1">
          <mxGeometry x="2290" y="1200" width="120" height="60" as="geometry" />
        </mxCell>
        <mxCell id="Grgckb2YluvVbN4gVH9M-9" style="edgeStyle=orthogonalEdgeStyle;rounded=0;orthogonalLoop=1;jettySize=auto;html=1;" edge="1" parent="1" source="Grgckb2YluvVbN4gVH9M-13" target="Grgckb2YluvVbN4gVH9M-15">
          <mxGeometry relative="1" as="geometry" />
        </mxCell>
        <mxCell id="Grgckb2YluvVbN4gVH9M-10" style="edgeStyle=orthogonalEdgeStyle;rounded=0;orthogonalLoop=1;jettySize=auto;html=1;exitX=0.75;exitY=0;exitDx=0;exitDy=0;entryX=0;entryY=0.5;entryDx=0;entryDy=0;" edge="1" parent="1" source="Grgckb2YluvVbN4gVH9M-13" target="Grgckb2YluvVbN4gVH9M-20">
          <mxGeometry relative="1" as="geometry" />
        </mxCell>
        <mxCell id="Grgckb2YluvVbN4gVH9M-11" style="edgeStyle=orthogonalEdgeStyle;rounded=0;orthogonalLoop=1;jettySize=auto;html=1;exitX=0.25;exitY=0;exitDx=0;exitDy=0;entryX=1;entryY=0.5;entryDx=0;entryDy=0;" edge="1" parent="1" source="Grgckb2YluvVbN4gVH9M-13" target="Grgckb2YluvVbN4gVH9M-21">
          <mxGeometry relative="1" as="geometry" />
        </mxCell>
        <mxCell id="Grgckb2YluvVbN4gVH9M-12" style="edgeStyle=orthogonalEdgeStyle;rounded=0;orthogonalLoop=1;jettySize=auto;html=1;exitX=0;exitY=0.25;exitDx=0;exitDy=0;entryX=1;entryY=1;entryDx=0;entryDy=0;" edge="1" parent="1" source="Grgckb2YluvVbN4gVH9M-13" target="Grgckb2YluvVbN4gVH9M-18">
          <mxGeometry relative="1" as="geometry" />
        </mxCell>
        <mxCell id="Grgckb2YluvVbN4gVH9M-13" value="Cliente" style="whiteSpace=wrap;html=1;" vertex="1" parent="1">
          <mxGeometry x="1740" y="1200" width="120" height="60" as="geometry" />
        </mxCell>
        <mxCell id="Grgckb2YluvVbN4gVH9M-14" style="edgeStyle=orthogonalEdgeStyle;rounded=0;orthogonalLoop=1;jettySize=auto;html=1;" edge="1" parent="1" source="Grgckb2YluvVbN4gVH9M-15" target="Grgckb2YluvVbN4gVH9M-8">
          <mxGeometry relative="1" as="geometry" />
        </mxCell>
        <mxCell id="Grgckb2YluvVbN4gVH9M-15" value="Realiza" style="rhombus;whiteSpace=wrap;html=1;" vertex="1" parent="1">
          <mxGeometry x="2030" y="1190" width="80" height="80" as="geometry" />
        </mxCell>
        <mxCell id="Grgckb2YluvVbN4gVH9M-16" style="edgeStyle=orthogonalEdgeStyle;rounded=0;orthogonalLoop=1;jettySize=auto;html=1;entryX=0.5;entryY=0;entryDx=0;entryDy=0;" edge="1" parent="1" source="Grgckb2YluvVbN4gVH9M-17" target="Grgckb2YluvVbN4gVH9M-4">
          <mxGeometry relative="1" as="geometry" />
        </mxCell>
        <mxCell id="Grgckb2YluvVbN4gVH9M-17" value="Contém" style="rhombus;whiteSpace=wrap;html=1;" vertex="1" parent="1">
          <mxGeometry x="2310" y="1440" width="80" height="80" as="geometry" />
        </mxCell>
        <mxCell id="Grgckb2YluvVbN4gVH9M-18" value="Nome" style="ellipse;whiteSpace=wrap;html=1;dashed=1;" vertex="1" parent="1">
          <mxGeometry x="1500" y="1180" width="120" height="40" as="geometry" />
        </mxCell>
        <mxCell id="Grgckb2YluvVbN4gVH9M-19" value="Estoque" style="ellipse;whiteSpace=wrap;html=1;dashed=1;" vertex="1" parent="1">
          <mxGeometry x="2300" y="1830" width="120" height="40" as="geometry" />
        </mxCell>
        <mxCell id="Grgckb2YluvVbN4gVH9M-20" value="CPF" style="ellipse;whiteSpace=wrap;html=1;dashed=1;" vertex="1" parent="1">
          <mxGeometry x="1910" y="1080" width="120" height="40" as="geometry" />
        </mxCell>
        <mxCell id="Grgckb2YluvVbN4gVH9M-21" value="Endereço" style="ellipse;whiteSpace=wrap;html=1;dashed=1;" vertex="1" parent="1">
          <mxGeometry x="1490" y="1110" width="120" height="40" as="geometry" />
        </mxCell>
        <mxCell id="Grgckb2YluvVbN4gVH9M-22" value="Preço" style="ellipse;whiteSpace=wrap;html=1;dashed=1;" vertex="1" parent="1">
          <mxGeometry x="2490" y="1620" width="120" height="40" as="geometry" />
        </mxCell>
        <mxCell id="Grgckb2YluvVbN4gVH9M-23" value="Nome" style="ellipse;whiteSpace=wrap;html=1;dashed=1;" vertex="1" parent="1">
          <mxGeometry x="2490" y="1760" width="120" height="40" as="geometry" />
        </mxCell>
        <mxCell id="Grgckb2YluvVbN4gVH9M-24" value="ValorTotal" style="ellipse;whiteSpace=wrap;html=1;dashed=1;" vertex="1" parent="1">
          <mxGeometry x="2500" y="1210" width="120" height="40" as="geometry" />
        </mxCell>
        <mxCell id="Grgckb2YluvVbN4gVH9M-25" value="Data" style="ellipse;whiteSpace=wrap;html=1;dashed=1;" vertex="1" parent="1">
          <mxGeometry x="2290" y="1090" width="120" height="40" as="geometry" />
        </mxCell>
      </root>
    </mxGraphModel>
  </diagram>
</mxfile>
